<mxfile host="app.diagrams.net" modified="2021-07-05T08:58:02.265Z" agent="5.0 (Windows NT 10.0; Win64; x64) AppleWebKit/537.36 (KHTML, like Gecko) Chrome/91.0.4472.124 Safari/537.36" etag="ZomFs5Fx9vlMzu-9Z1Uh" version="14.8.4" type="github">
  <diagram id="NWYkFUK9LSVxFtsLqtCG" name="Page-1">
    <mxGraphModel dx="2567" dy="3051" grid="1" gridSize="10" guides="1" tooltips="1" connect="1" arrows="1" fold="1" page="1" pageScale="1" pageWidth="827" pageHeight="1169" math="0" shadow="0">
      <root>
        <mxCell id="0" />
        <mxCell id="1" parent="0" />
        <mxCell id="OrH7R6QqTdeNsJV3QqQG-1" value="Pee" style="swimlane;fontStyle=1;align=center;verticalAlign=top;childLayout=stackLayout;horizontal=1;startSize=26;horizontalStack=0;resizeParent=1;resizeParentMax=0;resizeLast=0;collapsible=1;marginBottom=0;" parent="1" vertex="1">
          <mxGeometry x="-170" y="937" width="190" height="270" as="geometry">
            <mxRectangle x="-90" y="914" width="50" height="26" as="alternateBounds" />
          </mxGeometry>
        </mxCell>
        <mxCell id="OrH7R6QqTdeNsJV3QqQG-2" value="+ pid: String&#xa;+amount: String&#xa;+date: String&#xa;+uid: String&#xa;&#xa;&#xa;" style="text;strokeColor=none;fillColor=none;align=left;verticalAlign=top;spacingLeft=4;spacingRight=4;overflow=hidden;rotatable=0;points=[[0,0.5],[1,0.5]];portConstraint=eastwest;" parent="OrH7R6QqTdeNsJV3QqQG-1" vertex="1">
          <mxGeometry y="26" width="190" height="64" as="geometry" />
        </mxCell>
        <mxCell id="OrH7R6QqTdeNsJV3QqQG-3" value="" style="line;strokeWidth=1;fillColor=none;align=left;verticalAlign=middle;spacingTop=-1;spacingLeft=3;spacingRight=3;rotatable=0;labelPosition=right;points=[];portConstraint=eastwest;" parent="OrH7R6QqTdeNsJV3QqQG-1" vertex="1">
          <mxGeometry y="90" width="190" height="20" as="geometry" />
        </mxCell>
        <mxCell id="OrH7R6QqTdeNsJV3QqQG-4" value="+Pee (pid, amount, date, uid):&#xa;+getPid():String&#xa;+setPid(pid):void&#xa;+getAmount():String&#xa;+setAmount(amount):void&#xa;+getDate():String&#xa;+setDate(date):void&#xa;+getUid():String&#xa;+setUid(uid):void&#xa;+getType():int&#xa;&#xa;" style="text;strokeColor=none;fillColor=none;align=left;verticalAlign=top;spacingLeft=4;spacingRight=4;overflow=hidden;rotatable=0;points=[[0,0.5],[1,0.5]];portConstraint=eastwest;" parent="OrH7R6QqTdeNsJV3QqQG-1" vertex="1">
          <mxGeometry y="110" width="190" height="160" as="geometry" />
        </mxCell>
        <mxCell id="OrH7R6QqTdeNsJV3QqQG-10" value="Shit" style="swimlane;fontStyle=1;align=center;verticalAlign=top;childLayout=stackLayout;horizontal=1;startSize=26;horizontalStack=0;resizeParent=1;resizeParentMax=0;resizeLast=0;collapsible=1;marginBottom=0;" parent="1" vertex="1">
          <mxGeometry x="20" y="937" width="170" height="260" as="geometry">
            <mxRectangle x="55" y="934" width="60" height="26" as="alternateBounds" />
          </mxGeometry>
        </mxCell>
        <mxCell id="OrH7R6QqTdeNsJV3QqQG-11" value="+sid:String&#xa;+amount:String&#xa;+date:String&#xa;+uid:String" style="text;strokeColor=none;fillColor=none;align=left;verticalAlign=top;spacingLeft=4;spacingRight=4;overflow=hidden;rotatable=0;points=[[0,0.5],[1,0.5]];portConstraint=eastwest;" parent="OrH7R6QqTdeNsJV3QqQG-10" vertex="1">
          <mxGeometry y="26" width="170" height="64" as="geometry" />
        </mxCell>
        <mxCell id="OrH7R6QqTdeNsJV3QqQG-12" value="" style="line;strokeWidth=1;fillColor=none;align=left;verticalAlign=middle;spacingTop=-1;spacingLeft=3;spacingRight=3;rotatable=0;labelPosition=right;points=[];portConstraint=eastwest;" parent="OrH7R6QqTdeNsJV3QqQG-10" vertex="1">
          <mxGeometry y="90" width="170" height="8" as="geometry" />
        </mxCell>
        <mxCell id="OrH7R6QqTdeNsJV3QqQG-13" value="+Shit(sid, amount, date, uid):&#xa;+getSid():String&#xa;+setSid(sid):void&#xa;+getAmount():String&#xa;+setAmount(amount):void&#xa;+getDate():String&#xa;+setDate(date):void&#xa;+getUid():String&#xa;+setUid(uid):void&#xa;+getType():int&#xa;&#xa;" style="text;strokeColor=none;fillColor=none;align=left;verticalAlign=top;spacingLeft=4;spacingRight=4;overflow=hidden;rotatable=0;points=[[0,0.5],[1,0.5]];portConstraint=eastwest;" parent="OrH7R6QqTdeNsJV3QqQG-10" vertex="1">
          <mxGeometry y="98" width="170" height="162" as="geometry" />
        </mxCell>
        <mxCell id="OrH7R6QqTdeNsJV3QqQG-18" value="Water" style="swimlane;fontStyle=1;align=center;verticalAlign=top;childLayout=stackLayout;horizontal=1;startSize=26;horizontalStack=0;resizeParent=1;resizeParentMax=0;resizeLast=0;collapsible=1;marginBottom=0;" parent="1" vertex="1">
          <mxGeometry x="190" y="937" width="190" height="260" as="geometry">
            <mxRectangle x="190" y="937" width="50" height="26" as="alternateBounds" />
          </mxGeometry>
        </mxCell>
        <mxCell id="OrH7R6QqTdeNsJV3QqQG-19" value="+ wid: String&#xa;+amount: String&#xa;+date: String&#xa;+uid: String&#xa;&#xa;&#xa;" style="text;strokeColor=none;fillColor=none;align=left;verticalAlign=top;spacingLeft=4;spacingRight=4;overflow=hidden;rotatable=0;points=[[0,0.5],[1,0.5]];portConstraint=eastwest;" parent="OrH7R6QqTdeNsJV3QqQG-18" vertex="1">
          <mxGeometry y="26" width="190" height="64" as="geometry" />
        </mxCell>
        <mxCell id="OrH7R6QqTdeNsJV3QqQG-20" value="" style="line;strokeWidth=1;fillColor=none;align=left;verticalAlign=middle;spacingTop=-1;spacingLeft=3;spacingRight=3;rotatable=0;labelPosition=right;points=[];portConstraint=eastwest;" parent="OrH7R6QqTdeNsJV3QqQG-18" vertex="1">
          <mxGeometry y="90" width="190" height="10" as="geometry" />
        </mxCell>
        <mxCell id="OrH7R6QqTdeNsJV3QqQG-21" value="+Water(wid, amount, date, uid):&#xa;+getWid():String&#xa;+setWid(wid):void&#xa;+getAmount():String&#xa;+setAmount(amount):void&#xa;+getDate():String&#xa;+setDate(date):void&#xa;+getUid():String&#xa;+setUid(uid):void&#xa;+getType():int&#xa;&#xa;" style="text;strokeColor=none;fillColor=none;align=left;verticalAlign=top;spacingLeft=4;spacingRight=4;overflow=hidden;rotatable=0;points=[[0,0.5],[1,0.5]];portConstraint=eastwest;" parent="OrH7R6QqTdeNsJV3QqQG-18" vertex="1">
          <mxGeometry y="100" width="190" height="160" as="geometry" />
        </mxCell>
        <mxCell id="OrH7R6QqTdeNsJV3QqQG-26" value="Type" style="swimlane;fontStyle=1;align=center;verticalAlign=top;childLayout=stackLayout;horizontal=1;startSize=26;horizontalStack=0;resizeParent=1;resizeParentMax=0;resizeLast=0;collapsible=1;marginBottom=0;" parent="1" vertex="1">
          <mxGeometry x="-85" y="740" width="160" height="126" as="geometry">
            <mxRectangle x="39.54" y="823" width="60" height="26" as="alternateBounds" />
          </mxGeometry>
        </mxCell>
        <mxCell id="OrH7R6QqTdeNsJV3QqQG-27" value="+TYPE_WATER &#xa;+int TYPE_PEE&#xa;+int TYPE_SHIT" style="text;strokeColor=none;fillColor=none;align=left;verticalAlign=top;spacingLeft=4;spacingRight=4;overflow=hidden;rotatable=0;points=[[0,0.5],[1,0.5]];portConstraint=eastwest;" parent="OrH7R6QqTdeNsJV3QqQG-26" vertex="1">
          <mxGeometry y="26" width="160" height="54" as="geometry" />
        </mxCell>
        <mxCell id="OrH7R6QqTdeNsJV3QqQG-28" value="" style="line;strokeWidth=1;fillColor=none;align=left;verticalAlign=middle;spacingTop=-1;spacingLeft=3;spacingRight=3;rotatable=0;labelPosition=right;points=[];portConstraint=eastwest;" parent="OrH7R6QqTdeNsJV3QqQG-26" vertex="1">
          <mxGeometry y="80" width="160" height="20" as="geometry" />
        </mxCell>
        <mxCell id="OrH7R6QqTdeNsJV3QqQG-29" value="+getType():int" style="text;strokeColor=none;fillColor=none;align=left;verticalAlign=top;spacingLeft=4;spacingRight=4;overflow=hidden;rotatable=0;points=[[0,0.5],[1,0.5]];portConstraint=eastwest;" parent="OrH7R6QqTdeNsJV3QqQG-26" vertex="1">
          <mxGeometry y="100" width="160" height="26" as="geometry" />
        </mxCell>
        <mxCell id="qPEdYEZ0GSGJsdVQwp-i-1" value="HomeAdapter " style="swimlane;fontStyle=1;align=center;verticalAlign=top;childLayout=stackLayout;horizontal=1;startSize=26;horizontalStack=0;resizeParent=1;resizeParentMax=0;resizeLast=0;collapsible=1;marginBottom=0;" parent="1" vertex="1">
          <mxGeometry x="-145" y="1644" width="380" height="180" as="geometry">
            <mxRectangle x="490" y="474" width="160" height="26" as="alternateBounds" />
          </mxGeometry>
        </mxCell>
        <mxCell id="qPEdYEZ0GSGJsdVQwp-i-2" value="-context:Context&#xa;-typeList:List&lt;Type&gt; " style="text;strokeColor=none;fillColor=none;align=left;verticalAlign=top;spacingLeft=4;spacingRight=4;overflow=hidden;rotatable=0;points=[[0,0.5],[1,0.5]];portConstraint=eastwest;" parent="qPEdYEZ0GSGJsdVQwp-i-1" vertex="1">
          <mxGeometry y="26" width="380" height="44" as="geometry" />
        </mxCell>
        <mxCell id="qPEdYEZ0GSGJsdVQwp-i-3" value="" style="line;strokeWidth=1;fillColor=none;align=left;verticalAlign=middle;spacingTop=-1;spacingLeft=3;spacingRight=3;rotatable=0;labelPosition=right;points=[];portConstraint=eastwest;" parent="qPEdYEZ0GSGJsdVQwp-i-1" vertex="1">
          <mxGeometry y="70" width="380" height="8" as="geometry" />
        </mxCell>
        <mxCell id="qPEdYEZ0GSGJsdVQwp-i-4" value="+HomeAdapter(context, typeList)&#xa;+onCreateViewHolder( parent, viewType):RecyclerView.ViewHolder&#xa;+onBindViewHolder(holder, position):void&#xa;+getItemCount():int&#xa;+getItemViewType(position):int" style="text;strokeColor=none;fillColor=none;align=left;verticalAlign=top;spacingLeft=4;spacingRight=4;overflow=hidden;rotatable=0;points=[[0,0.5],[1,0.5]];portConstraint=eastwest;" parent="qPEdYEZ0GSGJsdVQwp-i-1" vertex="1">
          <mxGeometry y="78" width="380" height="102" as="geometry" />
        </mxCell>
        <mxCell id="qPEdYEZ0GSGJsdVQwp-i-5" value=" PeeViewHolder " style="swimlane;fontStyle=1;align=center;verticalAlign=top;childLayout=stackLayout;horizontal=1;startSize=26;horizontalStack=0;resizeParent=1;resizeParentMax=0;resizeLast=0;collapsible=1;marginBottom=0;" parent="1" vertex="1">
          <mxGeometry x="-170" y="1270" width="175" height="200" as="geometry">
            <mxRectangle x="-130" y="866" width="120" height="26" as="alternateBounds" />
          </mxGeometry>
        </mxCell>
        <mxCell id="qPEdYEZ0GSGJsdVQwp-i-6" value="-typeList:List&lt;Type&gt;&#xa;+card:CardView&#xa;+title:TextView&#xa;+minus:ImageView&#xa;+amount:TextView &#xa;+plus:ImageView" style="text;strokeColor=none;fillColor=none;align=left;verticalAlign=top;spacingLeft=4;spacingRight=4;overflow=hidden;rotatable=0;points=[[0,0.5],[1,0.5]];portConstraint=eastwest;" parent="qPEdYEZ0GSGJsdVQwp-i-5" vertex="1">
          <mxGeometry y="26" width="175" height="114" as="geometry" />
        </mxCell>
        <mxCell id="qPEdYEZ0GSGJsdVQwp-i-7" value="" style="line;strokeWidth=1;fillColor=none;align=left;verticalAlign=middle;spacingTop=-1;spacingLeft=3;spacingRight=3;rotatable=0;labelPosition=right;points=[];portConstraint=eastwest;" parent="qPEdYEZ0GSGJsdVQwp-i-5" vertex="1">
          <mxGeometry y="140" width="175" height="8" as="geometry" />
        </mxCell>
        <mxCell id="qPEdYEZ0GSGJsdVQwp-i-8" value="+PeeViewHolder(view, typeList)&#xa;+bindData(position):void&#xa;" style="text;strokeColor=none;fillColor=none;align=left;verticalAlign=top;spacingLeft=4;spacingRight=4;overflow=hidden;rotatable=0;points=[[0,0.5],[1,0.5]];portConstraint=eastwest;" parent="qPEdYEZ0GSGJsdVQwp-i-5" vertex="1">
          <mxGeometry y="148" width="175" height="52" as="geometry" />
        </mxCell>
        <mxCell id="qPEdYEZ0GSGJsdVQwp-i-9" value="ShitViewHolder " style="swimlane;fontStyle=1;align=center;verticalAlign=top;childLayout=stackLayout;horizontal=1;startSize=26;horizontalStack=0;resizeParent=1;resizeParentMax=0;resizeLast=0;collapsible=1;marginBottom=0;" parent="1" vertex="1">
          <mxGeometry x="5" y="1270" width="180" height="200" as="geometry">
            <mxRectangle y="866" width="140" height="26" as="alternateBounds" />
          </mxGeometry>
        </mxCell>
        <mxCell id="qPEdYEZ0GSGJsdVQwp-i-10" value="-typeList:List&lt;Type&gt;&#xa;+card:CardView&#xa;+title:TextView&#xa;+minus:ImageView&#xa;+amount:TextView &#xa;+plus:ImageView" style="text;strokeColor=none;fillColor=none;align=left;verticalAlign=top;spacingLeft=4;spacingRight=4;overflow=hidden;rotatable=0;points=[[0,0.5],[1,0.5]];portConstraint=eastwest;" parent="qPEdYEZ0GSGJsdVQwp-i-9" vertex="1">
          <mxGeometry y="26" width="180" height="114" as="geometry" />
        </mxCell>
        <mxCell id="qPEdYEZ0GSGJsdVQwp-i-11" value="" style="line;strokeWidth=1;fillColor=none;align=left;verticalAlign=middle;spacingTop=-1;spacingLeft=3;spacingRight=3;rotatable=0;labelPosition=right;points=[];portConstraint=eastwest;" parent="qPEdYEZ0GSGJsdVQwp-i-9" vertex="1">
          <mxGeometry y="140" width="180" height="8" as="geometry" />
        </mxCell>
        <mxCell id="qPEdYEZ0GSGJsdVQwp-i-12" value="+ShitViewHolder(view, typeList)&#xa;+bindData(position):void&#xa;" style="text;strokeColor=none;fillColor=none;align=left;verticalAlign=top;spacingLeft=4;spacingRight=4;overflow=hidden;rotatable=0;points=[[0,0.5],[1,0.5]];portConstraint=eastwest;" parent="qPEdYEZ0GSGJsdVQwp-i-9" vertex="1">
          <mxGeometry y="148" width="180" height="52" as="geometry" />
        </mxCell>
        <mxCell id="qPEdYEZ0GSGJsdVQwp-i-13" value="WaterViewHolder " style="swimlane;fontStyle=1;align=center;verticalAlign=top;childLayout=stackLayout;horizontal=1;startSize=26;horizontalStack=0;resizeParent=1;resizeParentMax=0;resizeLast=0;collapsible=1;marginBottom=0;" parent="1" vertex="1">
          <mxGeometry x="185" y="1270" width="195" height="200" as="geometry">
            <mxRectangle x="180" y="866" width="140" height="26" as="alternateBounds" />
          </mxGeometry>
        </mxCell>
        <mxCell id="qPEdYEZ0GSGJsdVQwp-i-14" value="-typeList:List&lt;Type&gt;&#xa;+card:CardView&#xa;+title:TextView&#xa;+minus:ImageView&#xa;+amount:TextView &#xa;+plus:ImageView" style="text;strokeColor=none;fillColor=none;align=left;verticalAlign=top;spacingLeft=4;spacingRight=4;overflow=hidden;rotatable=0;points=[[0,0.5],[1,0.5]];portConstraint=eastwest;" parent="qPEdYEZ0GSGJsdVQwp-i-13" vertex="1">
          <mxGeometry y="26" width="195" height="114" as="geometry" />
        </mxCell>
        <mxCell id="qPEdYEZ0GSGJsdVQwp-i-15" value="" style="line;strokeWidth=1;fillColor=none;align=left;verticalAlign=middle;spacingTop=-1;spacingLeft=3;spacingRight=3;rotatable=0;labelPosition=right;points=[];portConstraint=eastwest;" parent="qPEdYEZ0GSGJsdVQwp-i-13" vertex="1">
          <mxGeometry y="140" width="195" height="8" as="geometry" />
        </mxCell>
        <mxCell id="qPEdYEZ0GSGJsdVQwp-i-16" value="+WaterViewHolder(view, typeList)&#xa;+bindData(position):void&#xa;" style="text;strokeColor=none;fillColor=none;align=left;verticalAlign=top;spacingLeft=4;spacingRight=4;overflow=hidden;rotatable=0;points=[[0,0.5],[1,0.5]];portConstraint=eastwest;" parent="qPEdYEZ0GSGJsdVQwp-i-13" vertex="1">
          <mxGeometry y="148" width="195" height="52" as="geometry" />
        </mxCell>
        <mxCell id="Ti2GQdQaW2jY4-_UlOmM-1" value="MainActivity " style="swimlane;fontStyle=1;align=center;verticalAlign=top;childLayout=stackLayout;horizontal=1;startSize=26;horizontalStack=0;resizeParent=1;resizeParentMax=0;resizeLast=0;collapsible=1;marginBottom=0;" parent="1" vertex="1">
          <mxGeometry x="-60" y="-190" width="250" height="150" as="geometry">
            <mxRectangle x="-60" y="-190" width="150" height="26" as="alternateBounds" />
          </mxGeometry>
        </mxCell>
        <mxCell id="Ti2GQdQaW2jY4-_UlOmM-2" value="-mAppBarConfiguration:AppBarConfiguration&#xa;-binding:ActivityMainBinding" style="text;strokeColor=none;fillColor=none;align=left;verticalAlign=top;spacingLeft=4;spacingRight=4;overflow=hidden;rotatable=0;points=[[0,0.5],[1,0.5]];portConstraint=eastwest;" parent="Ti2GQdQaW2jY4-_UlOmM-1" vertex="1">
          <mxGeometry y="26" width="250" height="44" as="geometry" />
        </mxCell>
        <mxCell id="Ti2GQdQaW2jY4-_UlOmM-3" value="" style="line;strokeWidth=1;fillColor=none;align=left;verticalAlign=middle;spacingTop=-1;spacingLeft=3;spacingRight=3;rotatable=0;labelPosition=right;points=[];portConstraint=eastwest;" parent="Ti2GQdQaW2jY4-_UlOmM-1" vertex="1">
          <mxGeometry y="70" width="250" height="8" as="geometry" />
        </mxCell>
        <mxCell id="Ti2GQdQaW2jY4-_UlOmM-4" value="#onCreate(savedInstanceState):void&#xa;+onClick(view):void&#xa;+onCreateOptionsMenu(menu):boolean&#xa;+onSupportNavigateUp():boolean&#xa; " style="text;strokeColor=none;fillColor=none;align=left;verticalAlign=top;spacingLeft=4;spacingRight=4;overflow=hidden;rotatable=0;points=[[0,0.5],[1,0.5]];portConstraint=eastwest;" parent="Ti2GQdQaW2jY4-_UlOmM-1" vertex="1">
          <mxGeometry y="78" width="250" height="72" as="geometry" />
        </mxCell>
        <mxCell id="Ti2GQdQaW2jY4-_UlOmM-5" value="AllTimeFragment  " style="swimlane;fontStyle=1;align=center;verticalAlign=top;childLayout=stackLayout;horizontal=1;startSize=26;horizontalStack=0;resizeParent=1;resizeParentMax=0;resizeLast=0;collapsible=1;marginBottom=0;" parent="1" vertex="1">
          <mxGeometry x="190" y="192" width="340" height="140" as="geometry">
            <mxRectangle x="190" y="192" width="160" height="26" as="alternateBounds" />
          </mxGeometry>
        </mxCell>
        <mxCell id="Ti2GQdQaW2jY4-_UlOmM-6" value="-allTimeViewModel;:AllTimeViewModel &#xa;-binding:FragmentAllTimeBinding " style="text;strokeColor=none;fillColor=none;align=left;verticalAlign=top;spacingLeft=4;spacingRight=4;overflow=hidden;rotatable=0;points=[[0,0.5],[1,0.5]];portConstraint=eastwest;" parent="Ti2GQdQaW2jY4-_UlOmM-5" vertex="1">
          <mxGeometry y="26" width="340" height="44" as="geometry" />
        </mxCell>
        <mxCell id="Ti2GQdQaW2jY4-_UlOmM-7" value="" style="line;strokeWidth=1;fillColor=none;align=left;verticalAlign=middle;spacingTop=-1;spacingLeft=3;spacingRight=3;rotatable=0;labelPosition=right;points=[];portConstraint=eastwest;" parent="Ti2GQdQaW2jY4-_UlOmM-5" vertex="1">
          <mxGeometry y="70" width="340" height="8" as="geometry" />
        </mxCell>
        <mxCell id="Ti2GQdQaW2jY4-_UlOmM-8" value="+onCreateView(inflater, container, savedInstanceState):View&#xa;+onChanged(s):void&#xa;+onDestroyView():void" style="text;strokeColor=none;fillColor=none;align=left;verticalAlign=top;spacingLeft=4;spacingRight=4;overflow=hidden;rotatable=0;points=[[0,0.5],[1,0.5]];portConstraint=eastwest;" parent="Ti2GQdQaW2jY4-_UlOmM-5" vertex="1">
          <mxGeometry y="78" width="340" height="62" as="geometry" />
        </mxCell>
        <mxCell id="Ti2GQdQaW2jY4-_UlOmM-9" value="AllTimeViewModel " style="swimlane;fontStyle=1;align=center;verticalAlign=top;childLayout=stackLayout;horizontal=1;startSize=26;horizontalStack=0;resizeParent=1;resizeParentMax=0;resizeLast=0;collapsible=1;marginBottom=0;" parent="1" vertex="1">
          <mxGeometry x="210" y="410" width="220" height="100" as="geometry">
            <mxRectangle x="210" y="410" width="190" height="26" as="alternateBounds" />
          </mxGeometry>
        </mxCell>
        <mxCell id="Ti2GQdQaW2jY4-_UlOmM-10" value="-mText:MutableLiveData&lt;String&gt;" style="text;strokeColor=none;fillColor=none;align=left;verticalAlign=top;spacingLeft=4;spacingRight=4;overflow=hidden;rotatable=0;points=[[0,0.5],[1,0.5]];portConstraint=eastwest;" parent="Ti2GQdQaW2jY4-_UlOmM-9" vertex="1">
          <mxGeometry y="26" width="220" height="26" as="geometry" />
        </mxCell>
        <mxCell id="Ti2GQdQaW2jY4-_UlOmM-11" value="" style="line;strokeWidth=1;fillColor=none;align=left;verticalAlign=middle;spacingTop=-1;spacingLeft=3;spacingRight=3;rotatable=0;labelPosition=right;points=[];portConstraint=eastwest;" parent="Ti2GQdQaW2jY4-_UlOmM-9" vertex="1">
          <mxGeometry y="52" width="220" height="8" as="geometry" />
        </mxCell>
        <mxCell id="Ti2GQdQaW2jY4-_UlOmM-12" value="+ AllTimeViewModel()&#xa;+getText():LiveData&lt;String&gt; " style="text;strokeColor=none;fillColor=none;align=left;verticalAlign=top;spacingLeft=4;spacingRight=4;overflow=hidden;rotatable=0;points=[[0,0.5],[1,0.5]];portConstraint=eastwest;" parent="Ti2GQdQaW2jY4-_UlOmM-9" vertex="1">
          <mxGeometry y="60" width="220" height="40" as="geometry" />
        </mxCell>
        <mxCell id="Ti2GQdQaW2jY4-_UlOmM-13" value="HomeFragment " style="swimlane;fontStyle=1;align=center;verticalAlign=top;childLayout=stackLayout;horizontal=1;startSize=26;horizontalStack=0;resizeParent=1;resizeParentMax=0;resizeLast=0;collapsible=1;marginBottom=0;" parent="1" vertex="1">
          <mxGeometry x="-230" y="192" width="170" height="180" as="geometry">
            <mxRectangle x="-230" y="192" width="150" height="26" as="alternateBounds" />
          </mxGeometry>
        </mxCell>
        <mxCell id="Ti2GQdQaW2jY4-_UlOmM-14" value="-user:User&#xa;-recyclerView:RecyclerView&#xa;-adapter:HomeAdapter&#xa;-typeList:List&lt;Type&gt; " style="text;strokeColor=none;fillColor=none;align=left;verticalAlign=top;spacingLeft=4;spacingRight=4;overflow=hidden;rotatable=0;points=[[0,0.5],[1,0.5]];portConstraint=eastwest;" parent="Ti2GQdQaW2jY4-_UlOmM-13" vertex="1">
          <mxGeometry y="26" width="170" height="64" as="geometry" />
        </mxCell>
        <mxCell id="Ti2GQdQaW2jY4-_UlOmM-15" value="" style="line;strokeWidth=1;fillColor=none;align=left;verticalAlign=middle;spacingTop=-1;spacingLeft=3;spacingRight=3;rotatable=0;labelPosition=right;points=[];portConstraint=eastwest;" parent="Ti2GQdQaW2jY4-_UlOmM-13" vertex="1">
          <mxGeometry y="90" width="170" height="28" as="geometry" />
        </mxCell>
        <mxCell id="Ti2GQdQaW2jY4-_UlOmM-16" value="+onCreateView(inflater, container, savedInstanceState):View&#xa;+onStart():void&#xa;+onStop():void" style="text;strokeColor=none;fillColor=none;align=left;verticalAlign=top;spacingLeft=4;spacingRight=4;overflow=hidden;rotatable=0;points=[[0,0.5],[1,0.5]];portConstraint=eastwest;" parent="Ti2GQdQaW2jY4-_UlOmM-13" vertex="1">
          <mxGeometry y="118" width="170" height="62" as="geometry" />
        </mxCell>
        <mxCell id="Ti2GQdQaW2jY4-_UlOmM-17" value="YesterdayFragment " style="swimlane;fontStyle=1;align=center;verticalAlign=top;childLayout=stackLayout;horizontal=1;startSize=26;horizontalStack=0;resizeParent=1;resizeParentMax=0;resizeLast=0;collapsible=1;marginBottom=0;" parent="1" vertex="1">
          <mxGeometry x="-55" y="192" width="240" height="160" as="geometry">
            <mxRectangle x="-55" y="192" width="150" height="26" as="alternateBounds" />
          </mxGeometry>
        </mxCell>
        <mxCell id="Ti2GQdQaW2jY4-_UlOmM-18" value="- yesterdayViewModel:YesterdayViewModel&#xa; -binding:FragmentYesterdayBinding" style="text;strokeColor=none;fillColor=none;align=left;verticalAlign=top;spacingLeft=4;spacingRight=4;overflow=hidden;rotatable=0;points=[[0,0.5],[1,0.5]];portConstraint=eastwest;" parent="Ti2GQdQaW2jY4-_UlOmM-17" vertex="1">
          <mxGeometry y="26" width="240" height="64" as="geometry" />
        </mxCell>
        <mxCell id="Ti2GQdQaW2jY4-_UlOmM-19" value="" style="line;strokeWidth=1;fillColor=none;align=left;verticalAlign=middle;spacingTop=-1;spacingLeft=3;spacingRight=3;rotatable=0;labelPosition=right;points=[];portConstraint=eastwest;" parent="Ti2GQdQaW2jY4-_UlOmM-17" vertex="1">
          <mxGeometry y="90" width="240" height="8" as="geometry" />
        </mxCell>
        <mxCell id="Ti2GQdQaW2jY4-_UlOmM-20" value="+onCreateView(inflater, container, savedInstanceState):View&#xa;+onChanged(s):void&#xa;+onDestroyView():void" style="text;strokeColor=none;fillColor=none;align=left;verticalAlign=top;spacingLeft=4;spacingRight=4;overflow=hidden;rotatable=0;points=[[0,0.5],[1,0.5]];portConstraint=eastwest;" parent="Ti2GQdQaW2jY4-_UlOmM-17" vertex="1">
          <mxGeometry y="98" width="240" height="62" as="geometry" />
        </mxCell>
        <mxCell id="Ti2GQdQaW2jY4-_UlOmM-21" value="YesterdayViewModel " style="swimlane;fontStyle=1;align=center;verticalAlign=top;childLayout=stackLayout;horizontal=1;startSize=26;horizontalStack=0;resizeParent=1;resizeParentMax=0;resizeLast=0;collapsible=1;marginBottom=0;" parent="1" vertex="1">
          <mxGeometry x="-40" y="410" width="210" height="110" as="geometry">
            <mxRectangle x="-70" y="304" width="200" height="26" as="alternateBounds" />
          </mxGeometry>
        </mxCell>
        <mxCell id="Ti2GQdQaW2jY4-_UlOmM-22" value="-mText:MutableLiveData&lt;String&gt;" style="text;strokeColor=none;fillColor=none;align=left;verticalAlign=top;spacingLeft=4;spacingRight=4;overflow=hidden;rotatable=0;points=[[0,0.5],[1,0.5]];portConstraint=eastwest;" parent="Ti2GQdQaW2jY4-_UlOmM-21" vertex="1">
          <mxGeometry y="26" width="210" height="26" as="geometry" />
        </mxCell>
        <mxCell id="Ti2GQdQaW2jY4-_UlOmM-23" value="" style="line;strokeWidth=1;fillColor=none;align=left;verticalAlign=middle;spacingTop=-1;spacingLeft=3;spacingRight=3;rotatable=0;labelPosition=right;points=[];portConstraint=eastwest;" parent="Ti2GQdQaW2jY4-_UlOmM-21" vertex="1">
          <mxGeometry y="52" width="210" height="8" as="geometry" />
        </mxCell>
        <mxCell id="Ti2GQdQaW2jY4-_UlOmM-24" value="+YesterdayViewModel()&#xa;+getText():LiveData&lt;String&gt; " style="text;strokeColor=none;fillColor=none;align=left;verticalAlign=top;spacingLeft=4;spacingRight=4;overflow=hidden;rotatable=0;points=[[0,0.5],[1,0.5]];portConstraint=eastwest;" parent="Ti2GQdQaW2jY4-_UlOmM-21" vertex="1">
          <mxGeometry y="60" width="210" height="50" as="geometry" />
        </mxCell>
        <mxCell id="Ti2GQdQaW2jY4-_UlOmM-70" value="DatabaseAccess" style="swimlane;fontStyle=1;align=center;verticalAlign=top;childLayout=stackLayout;horizontal=1;startSize=26;horizontalStack=0;resizeParent=1;resizeParentMax=0;resizeLast=0;collapsible=1;marginBottom=0;" parent="1" vertex="1">
          <mxGeometry x="420" y="624" width="230" height="268" as="geometry">
            <mxRectangle x="250" y="600" width="110" height="26" as="alternateBounds" />
          </mxGeometry>
        </mxCell>
        <mxCell id="Ti2GQdQaW2jY4-_UlOmM-71" value="-con:java.sql.Connection&#xa;+host:String&#xa;+port:int&#xa;+db:String&#xa;+username:String&#xa;+password:String&#xa;" style="text;strokeColor=none;fillColor=none;align=left;verticalAlign=top;spacingLeft=4;spacingRight=4;overflow=hidden;rotatable=0;points=[[0,0.5],[1,0.5]];portConstraint=eastwest;" parent="Ti2GQdQaW2jY4-_UlOmM-70" vertex="1">
          <mxGeometry y="26" width="230" height="114" as="geometry" />
        </mxCell>
        <mxCell id="Ti2GQdQaW2jY4-_UlOmM-72" value="" style="line;strokeWidth=1;fillColor=none;align=left;verticalAlign=middle;spacingTop=-1;spacingLeft=3;spacingRight=3;rotatable=0;labelPosition=right;points=[];portConstraint=eastwest;" parent="Ti2GQdQaW2jY4-_UlOmM-70" vertex="1">
          <mxGeometry y="140" width="230" height="8" as="geometry" />
        </mxCell>
        <mxCell id="Ti2GQdQaW2jY4-_UlOmM-73" value="+DataAccess():&#xa;+getWater(user):Water&#xa;+setWater(user, water):boolean&#xa;+getPee(user):Pee&#xa;+setPee(user, pee):boolean&#xa;+getShit(user):Shit&#xa;+setShit(user, shit):boolean&#xa;" style="text;strokeColor=none;fillColor=none;align=left;verticalAlign=top;spacingLeft=4;spacingRight=4;overflow=hidden;rotatable=0;points=[[0,0.5],[1,0.5]];portConstraint=eastwest;" parent="Ti2GQdQaW2jY4-_UlOmM-70" vertex="1">
          <mxGeometry y="148" width="230" height="120" as="geometry" />
        </mxCell>
        <mxCell id="kIrqRmyYH5U7gHM8OKDg-16" value="LoginActivity " style="swimlane;fontStyle=1;align=center;verticalAlign=top;childLayout=stackLayout;horizontal=1;startSize=26;horizontalStack=0;resizeParent=1;resizeParentMax=0;resizeLast=0;collapsible=1;marginBottom=0;" parent="1" vertex="1">
          <mxGeometry x="470" y="366" width="220" height="154" as="geometry">
            <mxRectangle x="730" y="-60" width="160" height="26" as="alternateBounds" />
          </mxGeometry>
        </mxCell>
        <mxCell id="kIrqRmyYH5U7gHM8OKDg-17" value="-first:EditText&#xa;-last:EditText &#xa;-login:Button &#xa;-loading:ProgressBar " style="text;strokeColor=none;fillColor=none;align=left;verticalAlign=top;spacingLeft=4;spacingRight=4;overflow=hidden;rotatable=0;points=[[0,0.5],[1,0.5]];portConstraint=eastwest;" parent="kIrqRmyYH5U7gHM8OKDg-16" vertex="1">
          <mxGeometry y="26" width="220" height="94" as="geometry" />
        </mxCell>
        <mxCell id="kIrqRmyYH5U7gHM8OKDg-18" value="" style="line;strokeWidth=1;fillColor=none;align=left;verticalAlign=middle;spacingTop=-1;spacingLeft=3;spacingRight=3;rotatable=0;labelPosition=right;points=[];portConstraint=eastwest;" parent="kIrqRmyYH5U7gHM8OKDg-16" vertex="1">
          <mxGeometry y="120" width="220" height="8" as="geometry" />
        </mxCell>
        <mxCell id="kIrqRmyYH5U7gHM8OKDg-19" value="#onCreate(savedInstanceState):void" style="text;strokeColor=none;fillColor=none;align=left;verticalAlign=top;spacingLeft=4;spacingRight=4;overflow=hidden;rotatable=0;points=[[0,0.5],[1,0.5]];portConstraint=eastwest;" parent="kIrqRmyYH5U7gHM8OKDg-16" vertex="1">
          <mxGeometry y="128" width="220" height="26" as="geometry" />
        </mxCell>
        <mxCell id="kIrqRmyYH5U7gHM8OKDg-27" value="1" style="text;html=1;strokeColor=none;fillColor=none;align=center;verticalAlign=middle;whiteSpace=wrap;rounded=0;" parent="1" vertex="1">
          <mxGeometry x="380" y="810" width="40" height="20" as="geometry" />
        </mxCell>
        <mxCell id="kIrqRmyYH5U7gHM8OKDg-28" value="n" style="text;html=1;strokeColor=none;fillColor=none;align=center;verticalAlign=middle;whiteSpace=wrap;rounded=0;" parent="1" vertex="1">
          <mxGeometry x="90" y="770" width="40" height="20" as="geometry" />
        </mxCell>
        <mxCell id="eTdVh3xPFGlZU0kDuoaE-13" style="edgeStyle=orthogonalEdgeStyle;rounded=0;orthogonalLoop=1;jettySize=auto;html=1;exitX=0.75;exitY=0;exitDx=0;exitDy=0;entryX=0.579;entryY=1.005;entryDx=0;entryDy=0;entryPerimeter=0;" parent="1" source="eTdVh3xPFGlZU0kDuoaE-12" target="Ti2GQdQaW2jY4-_UlOmM-4" edge="1">
          <mxGeometry relative="1" as="geometry" />
        </mxCell>
        <mxCell id="eTdVh3xPFGlZU0kDuoaE-14" style="edgeStyle=orthogonalEdgeStyle;rounded=0;orthogonalLoop=1;jettySize=auto;html=1;exitX=0.5;exitY=1;exitDx=0;exitDy=0;entryX=0.5;entryY=0;entryDx=0;entryDy=0;" parent="1" source="eTdVh3xPFGlZU0kDuoaE-12" target="RZG1Sk_j14Lmqz5CqODX-14" edge="1">
          <mxGeometry relative="1" as="geometry">
            <mxPoint x="25" y="77" as="targetPoint" />
          </mxGeometry>
        </mxCell>
        <mxCell id="eTdVh3xPFGlZU0kDuoaE-12" value="&amp;nbsp;Ausgabe" style="text;html=1;strokeColor=none;fillColor=none;align=center;verticalAlign=middle;whiteSpace=wrap;rounded=0;" parent="1" vertex="1">
          <mxGeometry x="5" y="20" width="40" height="20" as="geometry" />
        </mxCell>
        <mxCell id="M0yHHe8iKClxI2UUnL0F-1" value="1" style="text;html=1;strokeColor=none;fillColor=none;align=center;verticalAlign=middle;whiteSpace=wrap;rounded=0;" parent="1" vertex="1">
          <mxGeometry x="15" y="54" width="60" height="30" as="geometry" />
        </mxCell>
        <mxCell id="M0yHHe8iKClxI2UUnL0F-2" value="1" style="text;html=1;strokeColor=none;fillColor=none;align=center;verticalAlign=middle;whiteSpace=wrap;rounded=0;" parent="1" vertex="1">
          <mxGeometry x="40" y="-45" width="60" height="30" as="geometry" />
        </mxCell>
        <mxCell id="RZG1Sk_j14Lmqz5CqODX-12" value="Extends" style="endArrow=block;endSize=16;endFill=0;html=1;entryX=0.5;entryY=1;entryDx=0;entryDy=0;exitX=0.5;exitY=0;exitDx=0;exitDy=0;" edge="1" parent="1" source="OrH7R6QqTdeNsJV3QqQG-10" target="OrH7R6QqTdeNsJV3QqQG-26">
          <mxGeometry width="160" relative="1" as="geometry">
            <mxPoint x="69.54" y="910" as="sourcePoint" />
            <mxPoint x="89.54" y="880" as="targetPoint" />
          </mxGeometry>
        </mxCell>
        <mxCell id="RZG1Sk_j14Lmqz5CqODX-14" value="Fragment" style="swimlane;fontStyle=0;childLayout=stackLayout;horizontal=1;startSize=26;fillColor=none;horizontalStack=0;resizeParent=1;resizeParentMax=0;resizeLast=0;collapsible=1;marginBottom=0;" vertex="1" collapsed="1" parent="1">
          <mxGeometry x="-15" y="84" width="80" height="26" as="geometry">
            <mxRectangle x="-15" y="84" width="140" height="52" as="alternateBounds" />
          </mxGeometry>
        </mxCell>
        <mxCell id="RZG1Sk_j14Lmqz5CqODX-19" value="Extends" style="endArrow=block;endSize=16;endFill=0;html=1;entryX=0.5;entryY=1;entryDx=0;entryDy=0;exitX=0.443;exitY=0.01;exitDx=0;exitDy=0;exitPerimeter=0;" edge="1" parent="1" source="Ti2GQdQaW2jY4-_UlOmM-17" target="RZG1Sk_j14Lmqz5CqODX-14">
          <mxGeometry width="160" relative="1" as="geometry">
            <mxPoint x="51.059999999999945" y="168.19999999999982" as="sourcePoint" />
            <mxPoint x="150" y="230" as="targetPoint" />
          </mxGeometry>
        </mxCell>
        <mxCell id="RZG1Sk_j14Lmqz5CqODX-24" value="Extends" style="endArrow=block;endSize=16;endFill=0;html=1;entryX=1;entryY=1;entryDx=0;entryDy=0;exitX=0.5;exitY=0;exitDx=0;exitDy=0;" edge="1" parent="1" source="OrH7R6QqTdeNsJV3QqQG-18" target="OrH7R6QqTdeNsJV3QqQG-26">
          <mxGeometry width="160" relative="1" as="geometry">
            <mxPoint x="139.54" y="1049.5" as="sourcePoint" />
            <mxPoint x="299.54" y="1049.5" as="targetPoint" />
          </mxGeometry>
        </mxCell>
        <mxCell id="RZG1Sk_j14Lmqz5CqODX-25" value="Extends" style="endArrow=block;endSize=16;endFill=0;html=1;entryX=0;entryY=1;entryDx=0;entryDy=0;exitX=0.5;exitY=0;exitDx=0;exitDy=0;" edge="1" parent="1" source="OrH7R6QqTdeNsJV3QqQG-1" target="OrH7R6QqTdeNsJV3QqQG-26">
          <mxGeometry width="160" relative="1" as="geometry">
            <mxPoint x="159.54" y="920" as="sourcePoint" />
            <mxPoint x="319.54" y="920" as="targetPoint" />
          </mxGeometry>
        </mxCell>
        <mxCell id="RZG1Sk_j14Lmqz5CqODX-26" value="Extends" style="endArrow=block;endSize=16;endFill=0;html=1;entryX=0;entryY=1;entryDx=0;entryDy=0;exitX=0.5;exitY=0;exitDx=0;exitDy=0;" edge="1" parent="1" source="Ti2GQdQaW2jY4-_UlOmM-13" target="RZG1Sk_j14Lmqz5CqODX-14">
          <mxGeometry width="160" relative="1" as="geometry">
            <mxPoint x="-145" y="190" as="sourcePoint" />
            <mxPoint x="-20" y="122.5" as="targetPoint" />
          </mxGeometry>
        </mxCell>
        <mxCell id="RZG1Sk_j14Lmqz5CqODX-27" value="Extends" style="endArrow=block;endSize=16;endFill=0;html=1;entryX=1;entryY=1;entryDx=0;entryDy=0;exitX=0.5;exitY=0;exitDx=0;exitDy=0;" edge="1" parent="1" source="Ti2GQdQaW2jY4-_UlOmM-5" target="RZG1Sk_j14Lmqz5CqODX-14">
          <mxGeometry width="160" relative="1" as="geometry">
            <mxPoint x="130" y="270" as="sourcePoint" />
            <mxPoint x="290" y="270" as="targetPoint" />
          </mxGeometry>
        </mxCell>
        <mxCell id="RZG1Sk_j14Lmqz5CqODX-29" value="" style="endArrow=classic;html=1;exitX=0;exitY=0.5;exitDx=0;exitDy=0;entryX=1;entryY=0.5;entryDx=0;entryDy=0;startArrow=none;" edge="1" parent="1" source="RZG1Sk_j14Lmqz5CqODX-30" target="Ti2GQdQaW2jY4-_UlOmM-1">
          <mxGeometry width="50" height="50" relative="1" as="geometry">
            <mxPoint x="510" y="-44" as="sourcePoint" />
            <mxPoint x="560" y="-94" as="targetPoint" />
          </mxGeometry>
        </mxCell>
        <mxCell id="RZG1Sk_j14Lmqz5CqODX-30" value="Ausgabe" style="text;html=1;strokeColor=none;fillColor=none;align=center;verticalAlign=middle;whiteSpace=wrap;rounded=0;" vertex="1" parent="1">
          <mxGeometry x="530" y="-40" width="40" height="20" as="geometry" />
        </mxCell>
        <mxCell id="RZG1Sk_j14Lmqz5CqODX-31" value="" style="endArrow=none;html=1;exitX=0.5;exitY=0;exitDx=0;exitDy=0;entryX=1;entryY=0.5;entryDx=0;entryDy=0;" edge="1" parent="1" source="kIrqRmyYH5U7gHM8OKDg-16" target="RZG1Sk_j14Lmqz5CqODX-30">
          <mxGeometry width="50" height="50" relative="1" as="geometry">
            <mxPoint x="700" y="-47.00000000000023" as="sourcePoint" />
            <mxPoint x="100" y="-47.00000000000023" as="targetPoint" />
          </mxGeometry>
        </mxCell>
        <mxCell id="RZG1Sk_j14Lmqz5CqODX-32" value="" style="endArrow=classic;startArrow=none;html=1;entryX=0.5;entryY=1;entryDx=0;entryDy=0;exitX=0.5;exitY=0;exitDx=0;exitDy=0;" edge="1" parent="1" source="eTdVh3xPFGlZU0kDuoaE-7" target="kIrqRmyYH5U7gHM8OKDg-16">
          <mxGeometry width="50" height="50" relative="1" as="geometry">
            <mxPoint x="710" y="104" as="sourcePoint" />
            <mxPoint x="760" y="54" as="targetPoint" />
          </mxGeometry>
        </mxCell>
        <mxCell id="eTdVh3xPFGlZU0kDuoaE-7" value="Daten überpruefung" style="text;html=1;strokeColor=none;fillColor=none;align=center;verticalAlign=middle;whiteSpace=wrap;rounded=0;" parent="1" vertex="1">
          <mxGeometry x="580" y="560" width="40" height="20" as="geometry" />
        </mxCell>
        <mxCell id="RZG1Sk_j14Lmqz5CqODX-34" value="" style="endArrow=none;startArrow=classic;html=1;entryX=0;entryY=0.5;entryDx=0;entryDy=0;exitX=0.5;exitY=0;exitDx=0;exitDy=0;" edge="1" parent="1" source="Ti2GQdQaW2jY4-_UlOmM-70" target="eTdVh3xPFGlZU0kDuoaE-7">
          <mxGeometry width="50" height="50" relative="1" as="geometry">
            <mxPoint x="335" y="660" as="sourcePoint" />
            <mxPoint x="335" y="572" as="targetPoint" />
          </mxGeometry>
        </mxCell>
        <mxCell id="RZG1Sk_j14Lmqz5CqODX-45" value="" style="endArrow=classic;startArrow=none;html=1;entryX=0.5;entryY=1;entryDx=0;entryDy=0;exitX=0;exitY=0;exitDx=0;exitDy=0;" edge="1" parent="1" source="RZG1Sk_j14Lmqz5CqODX-48" target="qPEdYEZ0GSGJsdVQwp-i-5">
          <mxGeometry width="50" height="50" relative="1" as="geometry">
            <mxPoint x="-96" y="1406" as="sourcePoint" />
            <mxPoint x="-46" y="1356" as="targetPoint" />
          </mxGeometry>
        </mxCell>
        <mxCell id="RZG1Sk_j14Lmqz5CqODX-46" value="" style="endArrow=classic;startArrow=none;html=1;entryX=0.5;entryY=1;entryDx=0;entryDy=0;exitX=0.378;exitY=0.013;exitDx=0;exitDy=0;exitPerimeter=0;" edge="1" parent="1" source="RZG1Sk_j14Lmqz5CqODX-50" target="qPEdYEZ0GSGJsdVQwp-i-9">
          <mxGeometry width="50" height="50" relative="1" as="geometry">
            <mxPoint x="45" y="1364" as="sourcePoint" />
            <mxPoint x="95" y="1314" as="targetPoint" />
          </mxGeometry>
        </mxCell>
        <mxCell id="RZG1Sk_j14Lmqz5CqODX-47" value="" style="endArrow=classic;startArrow=none;html=1;entryX=0.5;entryY=1;entryDx=0;entryDy=0;exitX=1;exitY=0;exitDx=0;exitDy=0;" edge="1" parent="1" source="RZG1Sk_j14Lmqz5CqODX-52" target="qPEdYEZ0GSGJsdVQwp-i-13">
          <mxGeometry width="50" height="50" relative="1" as="geometry">
            <mxPoint x="260" y="1418" as="sourcePoint" />
            <mxPoint x="310" y="1368" as="targetPoint" />
          </mxGeometry>
        </mxCell>
        <mxCell id="RZG1Sk_j14Lmqz5CqODX-48" value="Gemeinsame Darstellung" style="text;html=1;strokeColor=none;fillColor=none;align=center;verticalAlign=middle;whiteSpace=wrap;rounded=0;" vertex="1" parent="1">
          <mxGeometry x="-120" y="1553" width="40" height="20" as="geometry" />
        </mxCell>
        <mxCell id="RZG1Sk_j14Lmqz5CqODX-49" value="" style="endArrow=none;startArrow=classic;html=1;entryX=0.5;entryY=1;entryDx=0;entryDy=0;exitX=0;exitY=0;exitDx=0;exitDy=0;exitPerimeter=0;" edge="1" parent="1" source="qPEdYEZ0GSGJsdVQwp-i-1" target="RZG1Sk_j14Lmqz5CqODX-48">
          <mxGeometry width="50" height="50" relative="1" as="geometry">
            <mxPoint x="10" y="1368" as="sourcePoint" />
            <mxPoint x="-100" y="1296" as="targetPoint" />
          </mxGeometry>
        </mxCell>
        <mxCell id="RZG1Sk_j14Lmqz5CqODX-50" value="Gemeinsame Darstellung" style="text;html=1;strokeColor=none;fillColor=none;align=center;verticalAlign=middle;whiteSpace=wrap;rounded=0;" vertex="1" parent="1">
          <mxGeometry x="80" y="1533" width="40" height="20" as="geometry" />
        </mxCell>
        <mxCell id="RZG1Sk_j14Lmqz5CqODX-51" value="" style="endArrow=none;startArrow=classic;html=1;entryX=0.5;entryY=1;entryDx=0;entryDy=0;" edge="1" parent="1" source="qPEdYEZ0GSGJsdVQwp-i-1" target="RZG1Sk_j14Lmqz5CqODX-50">
          <mxGeometry width="50" height="50" relative="1" as="geometry">
            <mxPoint x="50" y="1524" as="sourcePoint" />
            <mxPoint x="70" y="1296" as="targetPoint" />
          </mxGeometry>
        </mxCell>
        <mxCell id="RZG1Sk_j14Lmqz5CqODX-52" value="Gemeinsame Darstellung" style="text;html=1;strokeColor=none;fillColor=none;align=center;verticalAlign=middle;whiteSpace=wrap;rounded=0;" vertex="1" parent="1">
          <mxGeometry x="260" y="1553" width="40" height="20" as="geometry" />
        </mxCell>
        <mxCell id="RZG1Sk_j14Lmqz5CqODX-53" value="" style="endArrow=none;startArrow=classic;html=1;entryX=0.5;entryY=1;entryDx=0;entryDy=0;exitX=1;exitY=0;exitDx=0;exitDy=0;" edge="1" parent="1" source="qPEdYEZ0GSGJsdVQwp-i-1" target="RZG1Sk_j14Lmqz5CqODX-52">
          <mxGeometry width="50" height="50" relative="1" as="geometry">
            <mxPoint x="650" y="878" as="sourcePoint" />
            <mxPoint x="730" y="806" as="targetPoint" />
          </mxGeometry>
        </mxCell>
        <mxCell id="RZG1Sk_j14Lmqz5CqODX-54" value="" style="endArrow=classic;startArrow=classic;html=1;entryX=0.296;entryY=1.011;entryDx=0;entryDy=0;entryPerimeter=0;" edge="1" parent="1" source="Ti2GQdQaW2jY4-_UlOmM-9" target="Ti2GQdQaW2jY4-_UlOmM-8">
          <mxGeometry width="50" height="50" relative="1" as="geometry">
            <mxPoint x="390" y="290" as="sourcePoint" />
            <mxPoint x="230" y="220" as="targetPoint" />
          </mxGeometry>
        </mxCell>
        <mxCell id="RZG1Sk_j14Lmqz5CqODX-55" value="" style="endArrow=classic;startArrow=classic;html=1;exitX=0.5;exitY=0;exitDx=0;exitDy=0;entryX=0.45;entryY=1.027;entryDx=0;entryDy=0;entryPerimeter=0;" edge="1" parent="1" source="Ti2GQdQaW2jY4-_UlOmM-21" target="Ti2GQdQaW2jY4-_UlOmM-20">
          <mxGeometry width="50" height="50" relative="1" as="geometry">
            <mxPoint x="90" y="290" as="sourcePoint" />
            <mxPoint x="140" y="240" as="targetPoint" />
          </mxGeometry>
        </mxCell>
        <mxCell id="RZG1Sk_j14Lmqz5CqODX-57" value="" style="endArrow=classic;startArrow=none;html=1;exitX=0;exitY=0.5;exitDx=0;exitDy=0;" edge="1" parent="1" source="RZG1Sk_j14Lmqz5CqODX-58" target="Ti2GQdQaW2jY4-_UlOmM-13">
          <mxGeometry width="50" height="50" relative="1" as="geometry">
            <mxPoint x="-190" y="354" as="sourcePoint" />
            <mxPoint x="-140" y="220" as="targetPoint" />
          </mxGeometry>
        </mxCell>
        <mxCell id="RZG1Sk_j14Lmqz5CqODX-58" value="Ausgabe" style="text;html=1;strokeColor=none;fillColor=none;align=center;verticalAlign=middle;whiteSpace=wrap;rounded=0;" vertex="1" parent="1">
          <mxGeometry x="-250" y="1150" width="40" height="20" as="geometry" />
        </mxCell>
        <mxCell id="RZG1Sk_j14Lmqz5CqODX-59" value="" style="endArrow=none;startArrow=classic;html=1;exitX=0;exitY=0.5;exitDx=0;exitDy=0;entryX=0;entryY=1;entryDx=0;entryDy=0;" edge="1" parent="1" source="qPEdYEZ0GSGJsdVQwp-i-1" target="RZG1Sk_j14Lmqz5CqODX-58">
          <mxGeometry width="50" height="50" relative="1" as="geometry">
            <mxPoint x="489.54" y="647" as="sourcePoint" />
            <mxPoint x="-225.45999999999978" y="1330" as="targetPoint" />
          </mxGeometry>
        </mxCell>
        <mxCell id="RZG1Sk_j14Lmqz5CqODX-60" value="1" style="text;html=1;strokeColor=none;fillColor=none;align=center;verticalAlign=middle;whiteSpace=wrap;rounded=0;" vertex="1" parent="1">
          <mxGeometry x="400" y="604" width="40" height="20" as="geometry" />
        </mxCell>
        <mxCell id="RZG1Sk_j14Lmqz5CqODX-62" value="1" style="text;html=1;strokeColor=none;fillColor=none;align=center;verticalAlign=middle;whiteSpace=wrap;rounded=0;" vertex="1" parent="1">
          <mxGeometry x="49.99999999999999" y="1197" width="40" height="20" as="geometry" />
        </mxCell>
        <mxCell id="RZG1Sk_j14Lmqz5CqODX-64" value="1" style="text;html=1;strokeColor=none;fillColor=none;align=center;verticalAlign=middle;whiteSpace=wrap;rounded=0;" vertex="1" parent="1">
          <mxGeometry x="-70" y="1207" width="40" height="20" as="geometry" />
        </mxCell>
        <mxCell id="RZG1Sk_j14Lmqz5CqODX-66" value="1" style="text;html=1;strokeColor=none;fillColor=none;align=center;verticalAlign=middle;whiteSpace=wrap;rounded=0;" vertex="1" parent="1">
          <mxGeometry x="240" y="1197" width="40" height="20" as="geometry" />
        </mxCell>
        <mxCell id="RZG1Sk_j14Lmqz5CqODX-68" value="1" style="text;html=1;strokeColor=none;fillColor=none;align=center;verticalAlign=middle;whiteSpace=wrap;rounded=0;" vertex="1" parent="1">
          <mxGeometry x="-150" y="380" width="40" height="20" as="geometry" />
        </mxCell>
        <mxCell id="RZG1Sk_j14Lmqz5CqODX-69" value="1" style="text;html=1;strokeColor=none;fillColor=none;align=center;verticalAlign=middle;whiteSpace=wrap;rounded=0;" vertex="1" parent="1">
          <mxGeometry x="-70" y="1296" width="40" height="20" as="geometry" />
        </mxCell>
        <mxCell id="RZG1Sk_j14Lmqz5CqODX-70" value="1" style="text;html=1;strokeColor=none;fillColor=none;align=center;verticalAlign=middle;whiteSpace=wrap;rounded=0;" vertex="1" parent="1">
          <mxGeometry x="65" y="390" width="40" height="20" as="geometry" />
        </mxCell>
        <mxCell id="RZG1Sk_j14Lmqz5CqODX-71" value="1" style="text;html=1;strokeColor=none;fillColor=none;align=center;verticalAlign=middle;whiteSpace=wrap;rounded=0;" vertex="1" parent="1">
          <mxGeometry x="70" y="352" width="40" height="20" as="geometry" />
        </mxCell>
        <mxCell id="RZG1Sk_j14Lmqz5CqODX-72" value="1" style="text;html=1;strokeColor=none;fillColor=none;align=center;verticalAlign=middle;whiteSpace=wrap;rounded=0;" vertex="1" parent="1">
          <mxGeometry x="250" y="332" width="40" height="20" as="geometry" />
        </mxCell>
        <mxCell id="RZG1Sk_j14Lmqz5CqODX-73" value="1" style="text;html=1;strokeColor=none;fillColor=none;align=center;verticalAlign=middle;whiteSpace=wrap;rounded=0;" vertex="1" parent="1">
          <mxGeometry x="260" y="390" width="40" height="20" as="geometry" />
        </mxCell>
        <mxCell id="RZG1Sk_j14Lmqz5CqODX-108" value="" style="endArrow=open;endFill=1;endSize=12;html=1;exitX=0.5;exitY=0;exitDx=0;exitDy=0;entryX=0.5;entryY=1;entryDx=0;entryDy=0;" edge="1" parent="1" source="qPEdYEZ0GSGJsdVQwp-i-9" target="OrH7R6QqTdeNsJV3QqQG-10">
          <mxGeometry width="160" relative="1" as="geometry">
            <mxPoint x="219.54" y="770" as="sourcePoint" />
            <mxPoint x="379.54" y="770" as="targetPoint" />
          </mxGeometry>
        </mxCell>
        <mxCell id="RZG1Sk_j14Lmqz5CqODX-109" value="" style="endArrow=open;endFill=1;endSize=12;html=1;exitX=0.5;exitY=0;exitDx=0;exitDy=0;entryX=0.483;entryY=1.007;entryDx=0;entryDy=0;entryPerimeter=0;" edge="1" parent="1" source="qPEdYEZ0GSGJsdVQwp-i-13" target="OrH7R6QqTdeNsJV3QqQG-21">
          <mxGeometry width="160" relative="1" as="geometry">
            <mxPoint x="219.54" y="770" as="sourcePoint" />
            <mxPoint x="379.54" y="770" as="targetPoint" />
          </mxGeometry>
        </mxCell>
        <mxCell id="RZG1Sk_j14Lmqz5CqODX-111" value="" style="endArrow=open;endFill=1;endSize=12;html=1;exitX=0.5;exitY=0;exitDx=0;exitDy=0;entryX=0.5;entryY=1;entryDx=0;entryDy=0;" edge="1" parent="1" source="qPEdYEZ0GSGJsdVQwp-i-5" target="OrH7R6QqTdeNsJV3QqQG-1">
          <mxGeometry width="160" relative="1" as="geometry">
            <mxPoint x="219.54" y="770" as="sourcePoint" />
            <mxPoint x="379.54" y="770" as="targetPoint" />
          </mxGeometry>
        </mxCell>
        <mxCell id="RZG1Sk_j14Lmqz5CqODX-113" value="" style="endArrow=open;endFill=1;endSize=12;html=1;exitX=0.002;exitY=0.263;exitDx=0;exitDy=0;exitPerimeter=0;entryX=1;entryY=0.5;entryDx=0;entryDy=0;" edge="1" parent="1" target="OrH7R6QqTdeNsJV3QqQG-26">
          <mxGeometry width="160" relative="1" as="geometry">
            <mxPoint x="420.00000000000006" y="839.982" as="sourcePoint" />
            <mxPoint x="219.54" y="790" as="targetPoint" />
          </mxGeometry>
        </mxCell>
        <mxCell id="RZG1Sk_j14Lmqz5CqODX-114" value="" style="endArrow=open;endFill=1;endSize=12;html=1;exitX=0.006;exitY=0.055;exitDx=0;exitDy=0;exitPerimeter=0;entryX=1;entryY=0.25;entryDx=0;entryDy=0;" edge="1" parent="1" source="Ti2GQdQaW2jY4-_UlOmM-70" target="OrH7R6QqTdeNsJV3QqQG-30">
          <mxGeometry width="160" relative="1" as="geometry">
            <mxPoint x="140" y="584.58" as="sourcePoint" />
            <mxPoint x="100" y="610" as="targetPoint" />
          </mxGeometry>
        </mxCell>
        <mxCell id="RZG1Sk_j14Lmqz5CqODX-115" value="1" style="text;html=1;strokeColor=none;fillColor=none;align=center;verticalAlign=middle;whiteSpace=wrap;rounded=0;" vertex="1" parent="1">
          <mxGeometry x="300" y="610" width="40" height="20" as="geometry" />
        </mxCell>
        <mxCell id="OrH7R6QqTdeNsJV3QqQG-30" value="User" style="swimlane;fontStyle=1;align=center;verticalAlign=top;childLayout=stackLayout;horizontal=1;startSize=26;horizontalStack=0;resizeParent=1;resizeParentMax=0;resizeLast=0;collapsible=1;marginBottom=0;" parent="1" vertex="1">
          <mxGeometry x="100" y="540" width="210" height="220" as="geometry">
            <mxRectangle x="100" y="520" width="50" height="26" as="alternateBounds" />
          </mxGeometry>
        </mxCell>
        <mxCell id="OrH7R6QqTdeNsJV3QqQG-31" value="+uid: String&#xa;+firstname: String&#xa;+lastname: String" style="text;strokeColor=none;fillColor=none;align=left;verticalAlign=top;spacingLeft=4;spacingRight=4;overflow=hidden;rotatable=0;points=[[0,0.5],[1,0.5]];portConstraint=eastwest;" parent="OrH7R6QqTdeNsJV3QqQG-30" vertex="1">
          <mxGeometry y="26" width="210" height="54" as="geometry" />
        </mxCell>
        <mxCell id="OrH7R6QqTdeNsJV3QqQG-32" value="" style="line;strokeWidth=1;fillColor=none;align=left;verticalAlign=middle;spacingTop=-1;spacingLeft=3;spacingRight=3;rotatable=0;labelPosition=right;points=[];portConstraint=eastwest;" parent="OrH7R6QqTdeNsJV3QqQG-30" vertex="1">
          <mxGeometry y="80" width="210" height="20" as="geometry" />
        </mxCell>
        <mxCell id="OrH7R6QqTdeNsJV3QqQG-33" value="+User (uid, firstname, lastname, birth):&#xa;+getUid():String&#xa;+setUid(uid):void&#xa;+getFirstname():String&#xa;+setFirstname(firstname):void&#xa;+getLastname():String&#xa;+setLastname(lastname):void&#xa;+getBirth():String&#xa;" style="text;strokeColor=none;fillColor=none;align=left;verticalAlign=top;spacingLeft=4;spacingRight=4;overflow=hidden;rotatable=0;points=[[0,0.5],[1,0.5]];portConstraint=eastwest;" parent="OrH7R6QqTdeNsJV3QqQG-30" vertex="1">
          <mxGeometry y="100" width="210" height="120" as="geometry" />
        </mxCell>
      </root>
    </mxGraphModel>
  </diagram>
</mxfile>
